0
SECTION
2
HEADER
0
ENDSEC
0
SECTION
2
TABLES
0
TABLE
2
LAYER
70
3
0
LAYER
2
CHAPA
70
0
62
7
6
CONTINUOUS
0
LAYER
2
PECAS
70
0
62
7
6
CONTINUOUS
0
LAYER
2
FUROS
70
0
62
7
6
CONTINUOUS
0
ENDTAB
0
ENDSEC
0
SECTION
2
ENTITIES
0
LINE
8
CHAPA
10
0
20
0
30
0
11
2750
21
0
31
0
0
LINE
8
CHAPA
10
2750
20
0
30
0
11
2750
21
1850
31
0
0
LINE
8
CHAPA
10
2750
20
1850
30
0
11
0
21
1850
31
0
0
LINE
8
CHAPA
10
0
20
1850
30
0
11
0
21
0
31
0
0
LINE
8
PECAS
10
10
20
10
30
0
11
824
21
10
31
0
0
LINE
8
PECAS
10
824
20
10
30
0
11
824
21
1174
31
0
0
LINE
8
PECAS
10
824
20
1174
30
0
11
10
21
1174
31
0
0
LINE
8
PECAS
10
10
20
1174
30
0
11
10
21
10
31
0
0
LINE
8
PECAS
10
827
20
10
30
0
11
1591
21
10
31
0
0
LINE
8
PECAS
10
1591
20
10
30
0
11
1591
21
824
31
0
0
LINE
8
PECAS
10
1591
20
824
30
0
11
827
21
824
31
0
0
LINE
8
PECAS
10
827
20
824
30
0
11
827
21
10
31
0
0
LINE
8
PECAS
10
827
20
827
30
0
11
1511
21
827
31
0
0
LINE
8
PECAS
10
1511
20
827
30
0
11
1511
21
1591
31
0
0
LINE
8
PECAS
10
1511
20
1591
30
0
11
827
21
1591
31
0
0
LINE
8
PECAS
10
827
20
1591
30
0
11
827
21
827
31
0
0
LINE
8
PECAS
10
10
20
1177
30
0
11
824
21
1177
31
0
0
LINE
8
PECAS
10
824
20
1177
30
0
11
824
21
1541
31
0
0
LINE
8
PECAS
10
824
20
1541
30
0
11
10
21
1541
31
0
0
LINE
8
PECAS
10
10
20
1541
30
0
11
10
21
1177
31
0
0
ENDSEC
0
EOF
