0
SECTION
2
HEADER
0
ENDSEC
0
SECTION
2
TABLES
0
TABLE
2
LAYER
70
3
0
LAYER
2
CHAPA
70
0
62
7
6
CONTINUOUS
0
LAYER
2
PECAS
70
0
62
7
6
CONTINUOUS
0
LAYER
2
FUROS
70
0
62
7
6
CONTINUOUS
0
ENDTAB
0
ENDSEC
0
SECTION
2
ENTITIES
0
LINE
8
CHAPA
10
0
20
0
30
0
11
2750
21
0
31
0
0
LINE
8
CHAPA
10
2750
20
0
30
0
11
2750
21
1850
31
0
0
LINE
8
CHAPA
10
2750
20
1850
30
0
11
0
21
1850
31
0
0
LINE
8
CHAPA
10
0
20
1850
30
0
11
0
21
0
31
0
0
LINE
8
PECAS
10
10
20
10
30
0
11
354
21
10
31
0
0
LINE
8
PECAS
10
354
20
10
30
0
11
354
21
774
31
0
0
LINE
8
PECAS
10
354
20
774
30
0
11
10
21
774
31
0
0
LINE
8
PECAS
10
10
20
774
30
0
11
10
21
10
31
0
0
CIRCLE
8
FUROS
10
47
20
724
30
0
40
2.5
0
CIRCLE
8
FUROS
10
47
20
60
30
0
40
2.5
0
LINE
8
PECAS
10
10
20
777
30
0
11
360
21
777
31
0
0
LINE
8
PECAS
10
360
20
777
30
0
11
360
21
1497
31
0
0
LINE
8
PECAS
10
360
20
1497
30
0
11
10
21
1497
31
0
0
LINE
8
PECAS
10
10
20
1497
30
0
11
10
21
777
31
0
0
CIRCLE
8
FUROS
10
47
20
827
30
0
40
7.5
0
CIRCLE
8
FUROS
10
47
20
1447
30
0
40
7.5
0
LINE
8
PECAS
10
357
20
10
30
0
11
707
21
10
31
0
0
LINE
8
PECAS
10
707
20
10
30
0
11
707
21
730
31
0
0
LINE
8
PECAS
10
707
20
730
30
0
11
357
21
730
31
0
0
LINE
8
PECAS
10
357
20
730
30
0
11
357
21
10
31
0
0
CIRCLE
8
FUROS
10
394
20
60
30
0
40
7.5
0
CIRCLE
8
FUROS
10
394
20
680
30
0
40
7.5
0
LINE
8
PECAS
10
10
20
1500
30
0
11
770
21
1500
31
0
0
LINE
8
PECAS
10
770
20
1500
30
0
11
770
21
1824
31
0
0
LINE
8
PECAS
10
770
20
1824
30
0
11
10
21
1824
31
0
0
LINE
8
PECAS
10
10
20
1824
30
0
11
10
21
1500
31
0
0
CIRCLE
8
FUROS
10
60
20
1537
30
0
40
2.5
0
CIRCLE
8
FUROS
10
720
20
1537
30
0
40
2.5
0
LINE
8
PECAS
10
363
20
733
30
0
11
727
21
733
31
0
0
LINE
8
PECAS
10
727
20
733
30
0
11
727
21
1277
31
0
0
LINE
8
PECAS
10
727
20
1277
30
0
11
363
21
1277
31
0
0
LINE
8
PECAS
10
363
20
1277
30
0
11
363
21
733
31
0
0
CIRCLE
8
FUROS
10
413
20
770
30
0
40
2.5
0
CIRCLE
8
FUROS
10
677
20
770
30
0
40
2.5
0
LINE
8
PECAS
10
363
20
1280
30
0
11
1127
21
1280
31
0
0
LINE
8
PECAS
10
1127
20
1280
30
0
11
1127
21
1430
31
0
0
LINE
8
PECAS
10
1127
20
1430
30
0
11
363
21
1430
31
0
0
LINE
8
PECAS
10
363
20
1430
30
0
11
363
21
1280
31
0
0
CIRCLE
8
FUROS
10
413
20
1317
30
0
40
2.5
0
CIRCLE
8
FUROS
10
1077
20
1317
30
0
40
2.5
0
LINE
8
PECAS
10
773
20
1433
30
0
11
981.5
21
1433
31
0
0
LINE
8
PECAS
10
981.5
20
1433
30
0
11
981.5
21
1825
31
0
0
LINE
8
PECAS
10
981.5
20
1825
30
0
11
773
21
1825
31
0
0
LINE
8
PECAS
10
773
20
1825
30
0
11
773
21
1433
31
0
0
LINE
8
PECAS
10
985
20
1433
30
0
11
1193.5
21
1433
31
0
0
LINE
8
PECAS
10
1193.5
20
1433
30
0
11
1193.5
21
1825
31
0
0
LINE
8
PECAS
10
1193.5
20
1825
30
0
11
985
21
1825
31
0
0
LINE
8
PECAS
10
985
20
1825
30
0
11
985
21
1433
31
0
0
LINE
8
PECAS
10
710
20
10
30
0
11
918.5
21
10
31
0
0
LINE
8
PECAS
10
918.5
20
10
30
0
11
918.5
21
402
31
0
0
LINE
8
PECAS
10
918.5
20
402
30
0
11
710
21
402
31
0
0
LINE
8
PECAS
10
710
20
402
30
0
11
710
21
10
31
0
0
ENDSEC
0
EOF
