0
SECTION
2
HEADER
0
ENDSEC
0
SECTION
2
TABLES
0
TABLE
2
LAYER
70
3
0
LAYER
2
CHAPA
70
0
62
7
6
CONTINUOUS
0
LAYER
2
PECAS
70
0
62
7
6
CONTINUOUS
0
LAYER
2
FUROS
70
0
62
7
6
CONTINUOUS
0
ENDTAB
0
ENDSEC
0
SECTION
2
ENTITIES
0
LINE
8
CHAPA
10
0
20
0
30
0
11
2750
21
0
31
0
0
LINE
8
CHAPA
10
2750
20
0
30
0
11
2750
21
1850
31
0
0
LINE
8
CHAPA
10
2750
20
1850
30
0
11
0
21
1850
31
0
0
LINE
8
CHAPA
10
0
20
1850
30
0
11
0
21
0
31
0
0
LINE
8
PECAS
10
10
20
10
30
0
11
554
21
10
31
0
0
LINE
8
PECAS
10
554
20
10
30
0
11
554
21
1174
31
0
0
LINE
8
PECAS
10
554
20
1174
30
0
11
10
21
1174
31
0
0
LINE
8
PECAS
10
10
20
1174
30
0
11
10
21
10
31
0
0
CIRCLE
8
FUROS
10
47
20
1124
30
0
40
2.5
0
CIRCLE
8
FUROS
10
47
20
60
30
0
40
2.5
0
LINE
8
PECAS
10
10
20
1177
30
0
11
1174
21
1177
31
0
0
LINE
8
PECAS
10
1174
20
1177
30
0
11
1174
21
1721
31
0
0
LINE
8
PECAS
10
1174
20
1721
30
0
11
10
21
1721
31
0
0
LINE
8
PECAS
10
10
20
1721
30
0
11
10
21
1177
31
0
0
CIRCLE
8
FUROS
10
60
20
1214
30
0
40
2.5
0
CIRCLE
8
FUROS
10
1124
20
1214
30
0
40
2.5
0
LINE
8
PECAS
10
557
20
10
30
0
11
1081
21
10
31
0
0
LINE
8
PECAS
10
1081
20
10
30
0
11
1081
21
1170
31
0
0
LINE
8
PECAS
10
1081
20
1170
30
0
11
557
21
1170
31
0
0
LINE
8
PECAS
10
557
20
1170
30
0
11
557
21
10
31
0
0
CIRCLE
8
FUROS
10
594
20
1120
30
0
40
2.5
0
CIRCLE
8
FUROS
10
594
20
60
30
0
40
2.5
0
LINE
8
PECAS
10
1084
20
10
30
0
11
1634
21
10
31
0
0
LINE
8
PECAS
10
1634
20
10
30
0
11
1634
21
860
31
0
0
LINE
8
PECAS
10
1634
20
860
30
0
11
1084
21
860
31
0
0
LINE
8
PECAS
10
1084
20
860
30
0
11
1084
21
10
31
0
0
CIRCLE
8
FUROS
10
1121
20
60
30
0
40
7.5
0
CIRCLE
8
FUROS
10
1121
20
810
30
0
40
7.5
0
LINE
8
PECAS
10
1177
20
863
30
0
11
1727
21
863
31
0
0
LINE
8
PECAS
10
1727
20
863
30
0
11
1727
21
1713
31
0
0
LINE
8
PECAS
10
1727
20
1713
30
0
11
1177
21
1713
31
0
0
LINE
8
PECAS
10
1177
20
1713
30
0
11
1177
21
863
31
0
0
CIRCLE
8
FUROS
10
1214
20
913
30
0
40
7.5
0
CIRCLE
8
FUROS
10
1214
20
1663
30
0
40
7.5
0
LINE
8
PECAS
10
1637
20
10
30
0
11
2187
21
10
31
0
0
LINE
8
PECAS
10
2187
20
10
30
0
11
2187
21
860
31
0
0
LINE
8
PECAS
10
2187
20
860
30
0
11
1637
21
860
31
0
0
LINE
8
PECAS
10
1637
20
860
30
0
11
1637
21
10
31
0
0
CIRCLE
8
FUROS
10
1674
20
60
30
0
40
7.5
0
CIRCLE
8
FUROS
10
1674
20
810
30
0
40
7.5
0
LINE
8
PECAS
10
1730
20
863
30
0
11
2280
21
863
31
0
0
LINE
8
PECAS
10
2280
20
863
30
0
11
2280
21
1713
31
0
0
LINE
8
PECAS
10
2280
20
1713
30
0
11
1730
21
1713
31
0
0
LINE
8
PECAS
10
1730
20
1713
30
0
11
1730
21
863
31
0
0
CIRCLE
8
FUROS
10
1767
20
913
30
0
40
7.5
0
CIRCLE
8
FUROS
10
1767
20
1663
30
0
40
7.5
0
LINE
8
PECAS
10
2190
20
10
30
0
11
2734
21
10
31
0
0
LINE
8
PECAS
10
2734
20
10
30
0
11
2734
21
774
31
0
0
LINE
8
PECAS
10
2734
20
774
30
0
11
2190
21
774
31
0
0
LINE
8
PECAS
10
2190
20
774
30
0
11
2190
21
10
31
0
0
CIRCLE
8
FUROS
10
2227
20
724
30
0
40
2.5
0
CIRCLE
8
FUROS
10
2227
20
60
30
0
40
2.5
0
LINE
8
PECAS
10
2283
20
777
30
0
11
2679
21
777
31
0
0
LINE
8
PECAS
10
2679
20
777
30
0
11
2679
21
1619
31
0
0
LINE
8
PECAS
10
2679
20
1619
30
0
11
2283
21
1619
31
0
0
LINE
8
PECAS
10
2283
20
1619
30
0
11
2283
21
777
31
0
0
CIRCLE
8
FUROS
10
2657
20
877
30
0
40
17.5
0
CIRCLE
8
FUROS
10
2657
20
1519
30
0
40
17.5
0
LINE
8
PECAS
10
2283
20
1622
30
0
11
2675
21
1622
31
0
0
LINE
8
PECAS
10
2675
20
1622
30
0
11
2675
21
1830.5
31
0
0
LINE
8
PECAS
10
2675
20
1830.5
30
0
11
2283
21
1830.5
31
0
0
LINE
8
PECAS
10
2283
20
1830.5
30
0
11
2283
21
1622
31
0
0
LINE
8
PECAS
10
10
20
1724
30
0
11
774
21
1724
31
0
0
LINE
8
PECAS
10
774
20
1724
30
0
11
774
21
1794
31
0
0
LINE
8
PECAS
10
774
20
1794
30
0
11
10
21
1794
31
0
0
LINE
8
PECAS
10
10
20
1794
30
0
11
10
21
1724
31
0
0
CIRCLE
8
FUROS
10
60
20
1761
30
0
40
2.5
0
CIRCLE
8
FUROS
10
724
20
1761
30
0
40
2.5
0
ENDSEC
0
EOF
