0
SECTION
2
HEADER
0
ENDSEC
0
SECTION
2
TABLES
0
TABLE
2
LAYER
70
2
0
LAYER
2
PECAS
70
0
62
7
6
CONTINUOUS
0
LAYER
2
FUROS
70
0
62
7
6
CONTINUOUS
0
ENDTAB
0
ENDSEC
0
SECTION
2
ENTITIES
0
LINE
8
PECAS
10
0
20
0
30
0
11
550
21
0
31
0
0
LINE
8
PECAS
10
550
20
0
30
0
11
550
21
850
31
0
0
LINE
8
PECAS
10
550
20
850
30
0
11
0
21
850
31
0
0
LINE
8
PECAS
10
0
20
850
30
0
11
0
21
0
31
0
0
CIRCLE
8
FUROS
10
37
20
50
30
0
40
7.5
0
CIRCLE
8
FUROS
10
37
20
800
30
0
40
7.5
0
LINE
8
PECAS
10
630
20
0
30
0
11
1180
21
0
31
0
0
LINE
8
PECAS
10
1180
20
0
30
0
11
1180
21
850
31
0
0
LINE
8
PECAS
10
1180
20
850
30
0
11
630
21
850
31
0
0
LINE
8
PECAS
10
630
20
850
30
0
11
630
21
0
31
0
0
CIRCLE
8
FUROS
10
667
20
50
30
0
40
7.5
0
CIRCLE
8
FUROS
10
667
20
800
30
0
40
7.5
0
LINE
8
PECAS
10
1260
20
0
30
0
11
2024
21
0
31
0
0
LINE
8
PECAS
10
2024
20
0
30
0
11
2024
21
544
31
0
0
LINE
8
PECAS
10
2024
20
544
30
0
11
1260
21
544
31
0
0
LINE
8
PECAS
10
1260
20
544
30
0
11
1260
21
0
31
0
0
CIRCLE
8
FUROS
10
1310
20
37
30
0
40
2.5
0
CIRCLE
8
FUROS
10
1974
20
37
30
0
40
2.5
0
LINE
8
PECAS
10
0
20
930
30
0
11
764
21
930
31
0
0
LINE
8
PECAS
10
764
20
930
30
0
11
764
21
1474
31
0
0
LINE
8
PECAS
10
764
20
1474
30
0
11
0
21
1474
31
0
0
LINE
8
PECAS
10
0
20
1474
30
0
11
0
21
930
31
0
0
CIRCLE
8
FUROS
10
50
20
967
30
0
40
2.5
0
CIRCLE
8
FUROS
10
714
20
967
30
0
40
2.5
0
LINE
8
PECAS
10
844
20
930
30
0
11
1608
21
930
31
0
0
LINE
8
PECAS
10
1608
20
930
30
0
11
1608
21
1744
31
0
0
LINE
8
PECAS
10
1608
20
1744
30
0
11
844
21
1744
31
0
0
LINE
8
PECAS
10
844
20
1744
30
0
11
844
21
930
31
0
0
LINE
8
PECAS
10
1688
20
930
30
0
11
2448
21
930
31
0
0
LINE
8
PECAS
10
2448
20
930
30
0
11
2448
21
1454
31
0
0
LINE
8
PECAS
10
2448
20
1454
30
0
11
1688
21
1454
31
0
0
LINE
8
PECAS
10
1688
20
1454
30
0
11
1688
21
930
31
0
0
CIRCLE
8
FUROS
10
1738
20
967
30
0
40
2.5
0
CIRCLE
8
FUROS
10
2398
20
967
30
0
40
2.5
0
LINE
8
PECAS
10
0
20
1824
30
0
11
396
21
1824
31
0
0
LINE
8
PECAS
10
396
20
1824
30
0
11
396
21
2666
31
0
0
LINE
8
PECAS
10
396
20
2666
30
0
11
0
21
2666
31
0
0
LINE
8
PECAS
10
0
20
2666
30
0
11
0
21
1824
31
0
0
CIRCLE
8
FUROS
10
374
20
1924
30
0
40
17.5
0
CIRCLE
8
FUROS
10
374
20
2566
30
0
40
17.5
0
LINE
8
PECAS
10
476
20
1824
30
0
11
872
21
1824
31
0
0
LINE
8
PECAS
10
872
20
1824
30
0
11
872
21
2666
31
0
0
LINE
8
PECAS
10
872
20
2666
30
0
11
476
21
2666
31
0
0
LINE
8
PECAS
10
476
20
2666
30
0
11
476
21
1824
31
0
0
CIRCLE
8
FUROS
10
498
20
1924
30
0
40
17.5
0
CIRCLE
8
FUROS
10
498
20
2566
30
0
40
17.5
0
LINE
8
PECAS
10
952
20
1824
30
0
11
1716
21
1824
31
0
0
LINE
8
PECAS
10
1716
20
1824
30
0
11
1716
21
1894
31
0
0
LINE
8
PECAS
10
1716
20
1894
30
0
11
952
21
1894
31
0
0
LINE
8
PECAS
10
952
20
1894
30
0
11
952
21
1824
31
0
0
CIRCLE
8
FUROS
10
1002
20
1861
30
0
40
2.5
0
CIRCLE
8
FUROS
10
1666
20
1861
30
0
40
2.5
0
LINE
8
PECAS
10
1796
20
1824
30
0
11
2346
21
1824
31
0
0
LINE
8
PECAS
10
2346
20
1824
30
0
11
2346
21
2674
31
0
0
LINE
8
PECAS
10
2346
20
2674
30
0
11
1796
21
2674
31
0
0
LINE
8
PECAS
10
1796
20
2674
30
0
11
1796
21
1824
31
0
0
CIRCLE
8
FUROS
10
1833
20
1874
30
0
40
7.5
0
CIRCLE
8
FUROS
10
1833
20
2624
30
0
40
7.5
0
LINE
8
PECAS
10
0
20
2754
30
0
11
550
21
2754
31
0
0
LINE
8
PECAS
10
550
20
2754
30
0
11
550
21
3604
31
0
0
LINE
8
PECAS
10
550
20
3604
30
0
11
0
21
3604
31
0
0
LINE
8
PECAS
10
0
20
3604
30
0
11
0
21
2754
31
0
0
CIRCLE
8
FUROS
10
37
20
2804
30
0
40
7.5
0
CIRCLE
8
FUROS
10
37
20
3554
30
0
40
7.5
0
LINE
8
PECAS
10
630
20
2754
30
0
11
1794
21
2754
31
0
0
LINE
8
PECAS
10
1794
20
2754
30
0
11
1794
21
3298
31
0
0
LINE
8
PECAS
10
1794
20
3298
30
0
11
630
21
3298
31
0
0
LINE
8
PECAS
10
630
20
3298
30
0
11
630
21
2754
31
0
0
CIRCLE
8
FUROS
10
680
20
2791
30
0
40
2.5
0
CIRCLE
8
FUROS
10
1744
20
2791
30
0
40
2.5
0
LINE
8
PECAS
10
0
20
3684
30
0
11
1164
21
3684
31
0
0
LINE
8
PECAS
10
1164
20
3684
30
0
11
1164
21
4228
31
0
0
LINE
8
PECAS
10
1164
20
4228
30
0
11
0
21
4228
31
0
0
LINE
8
PECAS
10
0
20
4228
30
0
11
0
21
3684
31
0
0
CIRCLE
8
FUROS
10
50
20
3721
30
0
40
2.5
0
CIRCLE
8
FUROS
10
1114
20
3721
30
0
40
2.5
0
LINE
8
PECAS
10
1244
20
3684
30
0
11
2408
21
3684
31
0
0
LINE
8
PECAS
10
2408
20
3684
30
0
11
2408
21
4498
31
0
0
LINE
8
PECAS
10
2408
20
4498
30
0
11
1244
21
4498
31
0
0
LINE
8
PECAS
10
1244
20
4498
30
0
11
1244
21
3684
31
0
0
LINE
8
PECAS
10
0
20
4578
30
0
11
1160
21
4578
31
0
0
LINE
8
PECAS
10
1160
20
4578
30
0
11
1160
21
5102
31
0
0
LINE
8
PECAS
10
1160
20
5102
30
0
11
0
21
5102
31
0
0
LINE
8
PECAS
10
0
20
5102
30
0
11
0
21
4578
31
0
0
CIRCLE
8
FUROS
10
50
20
4615
30
0
40
2.5
0
CIRCLE
8
FUROS
10
1110
20
4615
30
0
40
2.5
0
LINE
8
PECAS
10
1240
20
4578
30
0
11
1636
21
4578
31
0
0
LINE
8
PECAS
10
1636
20
4578
30
0
11
1636
21
5420
31
0
0
LINE
8
PECAS
10
1636
20
5420
30
0
11
1240
21
5420
31
0
0
LINE
8
PECAS
10
1240
20
5420
30
0
11
1240
21
4578
31
0
0
CIRCLE
8
FUROS
10
1614
20
4678
30
0
40
17.5
0
CIRCLE
8
FUROS
10
1614
20
5320
30
0
40
17.5
0
LINE
8
PECAS
10
1716
20
4578
30
0
11
2112
21
4578
31
0
0
LINE
8
PECAS
10
2112
20
4578
30
0
11
2112
21
5420
31
0
0
LINE
8
PECAS
10
2112
20
5420
30
0
11
1716
21
5420
31
0
0
LINE
8
PECAS
10
1716
20
5420
30
0
11
1716
21
4578
31
0
0
CIRCLE
8
FUROS
10
1738
20
4678
30
0
40
17.5
0
CIRCLE
8
FUROS
10
1738
20
5320
30
0
40
17.5
0
LINE
8
PECAS
10
2192
20
4578
30
0
11
2588
21
4578
31
0
0
LINE
8
PECAS
10
2588
20
4578
30
0
11
2588
21
5420
31
0
0
LINE
8
PECAS
10
2588
20
5420
30
0
11
2192
21
5420
31
0
0
LINE
8
PECAS
10
2192
20
5420
30
0
11
2192
21
4578
31
0
0
CIRCLE
8
FUROS
10
2566
20
4678
30
0
40
17.5
0
CIRCLE
8
FUROS
10
2566
20
5320
30
0
40
17.5
0
LINE
8
PECAS
10
0
20
5500
30
0
11
1164
21
5500
31
0
0
LINE
8
PECAS
10
1164
20
5500
30
0
11
1164
21
5570
31
0
0
LINE
8
PECAS
10
1164
20
5570
30
0
11
0
21
5570
31
0
0
LINE
8
PECAS
10
0
20
5570
30
0
11
0
21
5500
31
0
0
CIRCLE
8
FUROS
10
50
20
5537
30
0
40
2.5
0
CIRCLE
8
FUROS
10
1114
20
5537
30
0
40
2.5
0
LINE
8
PECAS
10
1244
20
5500
30
0
11
1794
21
5500
31
0
0
LINE
8
PECAS
10
1794
20
5500
30
0
11
1794
21
6350
31
0
0
LINE
8
PECAS
10
1794
20
6350
30
0
11
1244
21
6350
31
0
0
LINE
8
PECAS
10
1244
20
6350
30
0
11
1244
21
5500
31
0
0
CIRCLE
8
FUROS
10
1281
20
5550
30
0
40
7.5
0
CIRCLE
8
FUROS
10
1281
20
6300
30
0
40
7.5
0
LINE
8
PECAS
10
1874
20
5500
30
0
11
2424
21
5500
31
0
0
LINE
8
PECAS
10
2424
20
5500
30
0
11
2424
21
6350
31
0
0
LINE
8
PECAS
10
2424
20
6350
30
0
11
1874
21
6350
31
0
0
LINE
8
PECAS
10
1874
20
6350
30
0
11
1874
21
5500
31
0
0
CIRCLE
8
FUROS
10
1911
20
5550
30
0
40
7.5
0
CIRCLE
8
FUROS
10
1911
20
6300
30
0
40
7.5
0
LINE
8
PECAS
10
0
20
6430
30
0
11
364
21
6430
31
0
0
LINE
8
PECAS
10
364
20
6430
30
0
11
364
21
6974
31
0
0
LINE
8
PECAS
10
364
20
6974
30
0
11
0
21
6974
31
0
0
LINE
8
PECAS
10
0
20
6974
30
0
11
0
21
6430
31
0
0
CIRCLE
8
FUROS
10
50
20
6467
30
0
40
2.5
0
CIRCLE
8
FUROS
10
314
20
6467
30
0
40
2.5
0
LINE
8
PECAS
10
444
20
6430
30
0
11
808
21
6430
31
0
0
LINE
8
PECAS
10
808
20
6430
30
0
11
808
21
6974
31
0
0
LINE
8
PECAS
10
808
20
6974
30
0
11
444
21
6974
31
0
0
LINE
8
PECAS
10
444
20
6974
30
0
11
444
21
6430
31
0
0
CIRCLE
8
FUROS
10
494
20
6467
30
0
40
2.5
0
CIRCLE
8
FUROS
10
758
20
6467
30
0
40
2.5
0
LINE
8
PECAS
10
888
20
6430
30
0
11
1252
21
6430
31
0
0
LINE
8
PECAS
10
1252
20
6430
30
0
11
1252
21
7244
31
0
0
LINE
8
PECAS
10
1252
20
7244
30
0
11
888
21
7244
31
0
0
LINE
8
PECAS
10
888
20
7244
30
0
11
888
21
6430
31
0
0
LINE
8
PECAS
10
1332
20
6430
30
0
11
1724
21
6430
31
0
0
LINE
8
PECAS
10
1724
20
6430
30
0
11
1724
21
6638.5
31
0
0
LINE
8
PECAS
10
1724
20
6638.5
30
0
11
1332
21
6638.5
31
0
0
LINE
8
PECAS
10
1332
20
6638.5
30
0
11
1332
21
6430
31
0
0
LINE
8
PECAS
10
1804
20
6430
30
0
11
2196
21
6430
31
0
0
LINE
8
PECAS
10
2196
20
6430
30
0
11
2196
21
6638.5
31
0
0
LINE
8
PECAS
10
2196
20
6638.5
30
0
11
1804
21
6638.5
31
0
0
LINE
8
PECAS
10
1804
20
6638.5
30
0
11
1804
21
6430
31
0
0
LINE
8
PECAS
10
2276
20
6430
30
0
11
2668
21
6430
31
0
0
LINE
8
PECAS
10
2668
20
6430
30
0
11
2668
21
6638.5
31
0
0
LINE
8
PECAS
10
2668
20
6638.5
30
0
11
2276
21
6638.5
31
0
0
LINE
8
PECAS
10
2276
20
6638.5
30
0
11
2276
21
6430
31
0
0
LINE
8
PECAS
10
0
20
7324
30
0
11
392
21
7324
31
0
0
LINE
8
PECAS
10
392
20
7324
30
0
11
392
21
7532.5
31
0
0
LINE
8
PECAS
10
392
20
7532.5
30
0
11
0
21
7532.5
31
0
0
LINE
8
PECAS
10
0
20
7532.5
30
0
11
0
21
7324
31
0
0
LINE
8
PECAS
10
472
20
7324
30
0
11
836
21
7324
31
0
0
LINE
8
PECAS
10
836
20
7324
30
0
11
836
21
7394
31
0
0
LINE
8
PECAS
10
836
20
7394
30
0
11
472
21
7394
31
0
0
LINE
8
PECAS
10
472
20
7394
30
0
11
472
21
7324
31
0
0
CIRCLE
8
FUROS
10
522
20
7361
30
0
40
2.5
0
CIRCLE
8
FUROS
10
786
20
7361
30
0
40
2.5
0
LINE
8
PECAS
10
916
20
7324
30
0
11
1266
21
7324
31
0
0
LINE
8
PECAS
10
1266
20
7324
30
0
11
1266
21
8044
31
0
0
LINE
8
PECAS
10
1266
20
8044
30
0
11
916
21
8044
31
0
0
LINE
8
PECAS
10
916
20
8044
30
0
11
916
21
7324
31
0
0
CIRCLE
8
FUROS
10
953
20
7374
30
0
40
7.5
0
CIRCLE
8
FUROS
10
953
20
7994
30
0
40
7.5
0
LINE
8
PECAS
10
1346
20
7324
30
0
11
1696
21
7324
31
0
0
LINE
8
PECAS
10
1696
20
7324
30
0
11
1696
21
8044
31
0
0
LINE
8
PECAS
10
1696
20
8044
30
0
11
1346
21
8044
31
0
0
LINE
8
PECAS
10
1346
20
8044
30
0
11
1346
21
7324
31
0
0
CIRCLE
8
FUROS
10
1383
20
7374
30
0
40
7.5
0
CIRCLE
8
FUROS
10
1383
20
7994
30
0
40
7.5
0
LINE
8
PECAS
10
1776
20
7324
30
0
11
2540
21
7324
31
0
0
LINE
8
PECAS
10
2540
20
7324
30
0
11
2540
21
7668
31
0
0
LINE
8
PECAS
10
2540
20
7668
30
0
11
1776
21
7668
31
0
0
LINE
8
PECAS
10
1776
20
7668
30
0
11
1776
21
7324
31
0
0
CIRCLE
8
FUROS
10
1826
20
7361
30
0
40
2.5
0
CIRCLE
8
FUROS
10
2490
20
7361
30
0
40
2.5
0
LINE
8
PECAS
10
0
20
8124
30
0
11
764
21
8124
31
0
0
LINE
8
PECAS
10
764
20
8124
30
0
11
764
21
8468
31
0
0
LINE
8
PECAS
10
764
20
8468
30
0
11
0
21
8468
31
0
0
LINE
8
PECAS
10
0
20
8468
30
0
11
0
21
8124
31
0
0
CIRCLE
8
FUROS
10
50
20
8161
30
0
40
2.5
0
CIRCLE
8
FUROS
10
714
20
8161
30
0
40
2.5
0
LINE
8
PECAS
10
844
20
8124
30
0
11
1608
21
8124
31
0
0
LINE
8
PECAS
10
1608
20
8124
30
0
11
1608
21
8808
31
0
0
LINE
8
PECAS
10
1608
20
8808
30
0
11
844
21
8808
31
0
0
LINE
8
PECAS
10
844
20
8808
30
0
11
844
21
8124
31
0
0
LINE
8
PECAS
10
1688
20
8124
30
0
11
2448
21
8124
31
0
0
LINE
8
PECAS
10
2448
20
8124
30
0
11
2448
21
8448
31
0
0
LINE
8
PECAS
10
2448
20
8448
30
0
11
1688
21
8448
31
0
0
LINE
8
PECAS
10
1688
20
8448
30
0
11
1688
21
8124
31
0
0
CIRCLE
8
FUROS
10
1738
20
8161
30
0
40
2.5
0
CIRCLE
8
FUROS
10
2398
20
8161
30
0
40
2.5
0
LINE
8
PECAS
10
0
20
8888
30
0
11
396
21
8888
31
0
0
LINE
8
PECAS
10
396
20
8888
30
0
11
396
21
9600
31
0
0
LINE
8
PECAS
10
396
20
9600
30
0
11
0
21
9600
31
0
0
LINE
8
PECAS
10
0
20
9600
30
0
11
0
21
8888
31
0
0
CIRCLE
8
FUROS
10
374
20
8988
30
0
40
17.5
0
CIRCLE
8
FUROS
10
374
20
9500
30
0
40
17.5
0
LINE
8
PECAS
10
476
20
8888
30
0
11
872
21
8888
31
0
0
LINE
8
PECAS
10
872
20
8888
30
0
11
872
21
9600
31
0
0
LINE
8
PECAS
10
872
20
9600
30
0
11
476
21
9600
31
0
0
LINE
8
PECAS
10
476
20
9600
30
0
11
476
21
8888
31
0
0
CIRCLE
8
FUROS
10
498
20
8988
30
0
40
17.5
0
CIRCLE
8
FUROS
10
498
20
9500
30
0
40
17.5
0
LINE
8
PECAS
10
952
20
8888
30
0
11
1716
21
8888
31
0
0
LINE
8
PECAS
10
1716
20
8888
30
0
11
1716
21
8958
31
0
0
LINE
8
PECAS
10
1716
20
8958
30
0
11
952
21
8958
31
0
0
LINE
8
PECAS
10
952
20
8958
30
0
11
952
21
8888
31
0
0
CIRCLE
8
FUROS
10
1002
20
8925
30
0
40
2.5
0
CIRCLE
8
FUROS
10
1666
20
8925
30
0
40
2.5
0
ENDSEC
0
EOF
