0
SECTION
2
HEADER
0
ENDSEC
0
SECTION
2
TABLES
0
TABLE
2
LAYER
70
3
0
LAYER
2
CHAPA
70
0
62
7
6
CONTINUOUS
0
LAYER
2
PECAS
70
0
62
7
6
CONTINUOUS
0
LAYER
2
FUROS
70
0
62
7
6
CONTINUOUS
0
ENDTAB
0
ENDSEC
0
SECTION
2
ENTITIES
0
LINE
8
CHAPA
10
0
20
0
30
0
11
2750
21
0
31
0
0
LINE
8
CHAPA
10
2750
20
0
30
0
11
2750
21
1850
31
0
0
LINE
8
CHAPA
10
2750
20
1850
30
0
11
0
21
1850
31
0
0
LINE
8
CHAPA
10
0
20
1850
30
0
11
0
21
0
31
0
0
LINE
8
PECAS
10
10
20
10
30
0
11
560
21
10
31
0
0
LINE
8
PECAS
10
560
20
10
30
0
11
560
21
860
31
0
0
LINE
8
PECAS
10
560
20
860
30
0
11
10
21
860
31
0
0
LINE
8
PECAS
10
10
20
860
30
0
11
10
21
10
31
0
0
CIRCLE
8
FUROS
10
47
20
60
30
0
40
7.5
0
CIRCLE
8
FUROS
10
47
20
810
30
0
40
7.5
0
LINE
8
PECAS
10
10
20
863
30
0
11
560
21
863
31
0
0
LINE
8
PECAS
10
560
20
863
30
0
11
560
21
1713
31
0
0
LINE
8
PECAS
10
560
20
1713
30
0
11
10
21
1713
31
0
0
LINE
8
PECAS
10
10
20
1713
30
0
11
10
21
863
31
0
0
CIRCLE
8
FUROS
10
47
20
913
30
0
40
7.5
0
CIRCLE
8
FUROS
10
47
20
1663
30
0
40
7.5
0
LINE
8
PECAS
10
563
20
10
30
0
11
1107
21
10
31
0
0
LINE
8
PECAS
10
1107
20
10
30
0
11
1107
21
774
31
0
0
LINE
8
PECAS
10
1107
20
774
30
0
11
563
21
774
31
0
0
LINE
8
PECAS
10
563
20
774
30
0
11
563
21
10
31
0
0
CIRCLE
8
FUROS
10
600
20
724
30
0
40
2.5
0
CIRCLE
8
FUROS
10
600
20
60
30
0
40
2.5
0
LINE
8
PECAS
10
563
20
777
30
0
11
1087
21
777
31
0
0
LINE
8
PECAS
10
1087
20
777
30
0
11
1087
21
1537
31
0
0
LINE
8
PECAS
10
1087
20
1537
30
0
11
563
21
1537
31
0
0
LINE
8
PECAS
10
563
20
1537
30
0
11
563
21
777
31
0
0
CIRCLE
8
FUROS
10
600
20
1487
30
0
40
2.5
0
CIRCLE
8
FUROS
10
600
20
827
30
0
40
2.5
0
LINE
8
PECAS
10
1090
20
777
30
0
11
1486
21
777
31
0
0
LINE
8
PECAS
10
1486
20
777
30
0
11
1486
21
1619
31
0
0
LINE
8
PECAS
10
1486
20
1619
30
0
11
1090
21
1619
31
0
0
LINE
8
PECAS
10
1090
20
1619
30
0
11
1090
21
777
31
0
0
CIRCLE
8
FUROS
10
1112
20
877
30
0
40
17.5
0
CIRCLE
8
FUROS
10
1112
20
1519
30
0
40
17.5
0
LINE
8
PECAS
10
1110
20
10
30
0
11
1952
21
10
31
0
0
LINE
8
PECAS
10
1952
20
10
30
0
11
1952
21
406
31
0
0
LINE
8
PECAS
10
1952
20
406
30
0
11
1110
21
406
31
0
0
LINE
8
PECAS
10
1110
20
406
30
0
11
1110
21
10
31
0
0
CIRCLE
8
FUROS
10
1210
20
32
30
0
40
17.5
0
CIRCLE
8
FUROS
10
1852
20
32
30
0
40
17.5
0
LINE
8
PECAS
10
1955
20
10
30
0
11
2351
21
10
31
0
0
LINE
8
PECAS
10
2351
20
10
30
0
11
2351
21
852
31
0
0
LINE
8
PECAS
10
2351
20
852
30
0
11
1955
21
852
31
0
0
LINE
8
PECAS
10
1955
20
852
30
0
11
1955
21
10
31
0
0
CIRCLE
8
FUROS
10
1977
20
110
30
0
40
17.5
0
CIRCLE
8
FUROS
10
1977
20
752
30
0
40
17.5
0
LINE
8
PECAS
10
1489
20
409
30
0
11
1885
21
409
31
0
0
LINE
8
PECAS
10
1885
20
409
30
0
11
1885
21
1251
31
0
0
LINE
8
PECAS
10
1885
20
1251
30
0
11
1489
21
1251
31
0
0
LINE
8
PECAS
10
1489
20
1251
30
0
11
1489
21
409
31
0
0
CIRCLE
8
FUROS
10
1863
20
509
30
0
40
17.5
0
CIRCLE
8
FUROS
10
1863
20
1151
30
0
40
17.5
0
LINE
8
PECAS
10
1888
20
855
30
0
11
2600
21
855
31
0
0
LINE
8
PECAS
10
2600
20
855
30
0
11
2600
21
1251
31
0
0
LINE
8
PECAS
10
2600
20
1251
30
0
11
1888
21
1251
31
0
0
LINE
8
PECAS
10
1888
20
1251
30
0
11
1888
21
855
31
0
0
CIRCLE
8
FUROS
10
1988
20
877
30
0
40
17.5
0
CIRCLE
8
FUROS
10
2500
20
877
30
0
40
17.5
0
LINE
8
PECAS
10
1489
20
1254
30
0
11
2201
21
1254
31
0
0
LINE
8
PECAS
10
2201
20
1254
30
0
11
2201
21
1650
31
0
0
LINE
8
PECAS
10
2201
20
1650
30
0
11
1489
21
1650
31
0
0
LINE
8
PECAS
10
1489
20
1650
30
0
11
1489
21
1254
31
0
0
CIRCLE
8
FUROS
10
1589
20
1628
30
0
40
17.5
0
CIRCLE
8
FUROS
10
2101
20
1628
30
0
40
17.5
0
LINE
8
PECAS
10
2354
20
10
30
0
11
2698
21
10
31
0
0
LINE
8
PECAS
10
2698
20
10
30
0
11
2698
21
774
31
0
0
LINE
8
PECAS
10
2698
20
774
30
0
11
2354
21
774
31
0
0
LINE
8
PECAS
10
2354
20
774
30
0
11
2354
21
10
31
0
0
CIRCLE
8
FUROS
10
2391
20
724
30
0
40
2.5
0
CIRCLE
8
FUROS
10
2391
20
60
30
0
40
2.5
0
LINE
8
PECAS
10
2204
20
1254
30
0
11
2568
21
1254
31
0
0
LINE
8
PECAS
10
2568
20
1254
30
0
11
2568
21
1798
31
0
0
LINE
8
PECAS
10
2568
20
1798
30
0
11
2204
21
1798
31
0
0
LINE
8
PECAS
10
2204
20
1798
30
0
11
2204
21
1254
31
0
0
CIRCLE
8
FUROS
10
2254
20
1291
30
0
40
2.5
0
CIRCLE
8
FUROS
10
2518
20
1291
30
0
40
2.5
0
LINE
8
PECAS
10
563
20
1653
30
0
11
1727
21
1653
31
0
0
LINE
8
PECAS
10
1727
20
1653
30
0
11
1727
21
1803
31
0
0
LINE
8
PECAS
10
1727
20
1803
30
0
11
563
21
1803
31
0
0
LINE
8
PECAS
10
563
20
1803
30
0
11
563
21
1653
31
0
0
CIRCLE
8
FUROS
10
613
20
1690
30
0
40
2.5
0
CIRCLE
8
FUROS
10
1677
20
1690
30
0
40
2.5
0
LINE
8
PECAS
10
1110
20
409
30
0
11
1260
21
409
31
0
0
LINE
8
PECAS
10
1260
20
409
30
0
11
1260
21
773
31
0
0
LINE
8
PECAS
10
1260
20
773
30
0
11
1110
21
773
31
0
0
LINE
8
PECAS
10
1110
20
773
30
0
11
1110
21
409
31
0
0
CIRCLE
8
FUROS
10
1147
20
723
30
0
40
2.5
0
CIRCLE
8
FUROS
10
1147
20
459
30
0
40
2.5
0
ENDSEC
0
EOF
